# Blender v2.80 (sub 75) OBJ File: ''
# www.blender.org
mtllib ERROR.mtl
o Cube
v 1.239793 -1.588633 0.150000
v 1.588633 -1.239794 0.150000
v 1.239793 -1.588633 -0.150000
v 1.588633 -1.239794 -0.150000
v -1.588633 1.239794 -0.150000
v -1.239793 1.588633 -0.150000
v -1.239793 1.588633 0.150000
v -1.588633 1.239794 0.150000
v -1.590990 -1.237437 0.150000
v 1.237437 1.590990 0.150000
v -1.590990 -1.237437 -0.150000
v 1.237437 1.590990 -0.150000
v -1.237437 -1.590990 0.150000
v 1.590990 1.237437 0.150000
v -1.237437 -1.590990 -0.150000
v 1.590990 1.237437 -0.150000
v -0.351196 0.002357 0.150000
v -0.002357 0.351196 0.150000
v -0.002357 0.351196 -0.150000
v -0.351196 0.002357 -0.150000
v 0.351196 -0.002357 -0.150000
v 0.002357 -0.351196 -0.150000
v 0.351196 -0.002357 0.150000
v 0.002357 -0.351196 0.150000
v 1.239793 -1.588633 0.150000
v 1.239793 -1.588633 0.150000
v 0.002357 -0.351196 0.150000
v 0.002357 -0.351196 0.150000
v 0.002357 -0.351196 -0.150000
v 0.002357 -0.351196 -0.150000
v 1.239793 -1.588633 -0.150000
v 1.239793 -1.588633 -0.150000
v -0.002357 0.351196 0.150000
v -0.002357 0.351196 0.150000
v -1.239793 1.588633 0.150000
v -1.239793 1.588633 0.150000
v -1.588633 1.239794 0.150000
v -1.588633 1.239794 0.150000
v -1.588633 1.239794 -0.150000
v -1.588633 1.239794 -0.150000
v 1.588633 -1.239794 -0.150000
v 1.588633 -1.239794 -0.150000
v 1.588633 -1.239794 0.150000
v 1.588633 -1.239794 0.150000
v -1.239793 1.588633 -0.150000
v -1.239793 1.588633 -0.150000
v -0.351196 0.002357 0.150000
v -0.351196 0.002357 0.150000
v -1.590990 -1.237437 -0.150000
v -1.590990 -1.237437 -0.150000
v -1.590990 -1.237437 0.150000
v -1.590990 -1.237437 0.150000
v 1.237437 1.590990 0.150000
v 1.237437 1.590990 0.150000
v 1.237437 1.590990 -0.150000
v 1.237437 1.590990 -0.150000
v -0.351196 0.002357 -0.150000
v -0.351196 0.002357 -0.150000
v -1.237437 -1.590990 -0.150000
v -1.237437 -1.590990 -0.150000
v 1.590990 1.237437 -0.150000
v 1.590990 1.237437 -0.150000
v -1.237437 -1.590990 0.150000
v -1.237437 -1.590990 0.150000
v 1.590990 1.237437 0.150000
v 1.590990 1.237437 0.150000
v -0.002357 0.351196 -0.150000
v -0.002357 0.351196 -0.150000
v 0.351196 -0.002357 -0.150000
v 0.351196 -0.002357 -0.150000
v 0.351196 -0.002357 0.150000
v 0.351196 -0.002357 0.150000
vt 0.805226 0.322863
vt 0.945197 0.643952
vt 0.750423 0.393579
vt 0.424579 0.846081
vt 0.377403 0.746169
vt 0.424579 0.746169
vt 0.471754 0.846081
vt 0.424579 0.746169
vt 0.471754 0.746169
vt 0.377403 0.644907
vt 0.330228 0.999325
vt 0.330228 0.644907
vt 0.305226 0.322863
vt 0.445197 0.643952
vt 0.250423 0.393579
vt 0.283052 0.644907
vt 0.235877 0.999325
vt 0.235877 0.644907
vt 0.094351 1.000000
vt 0.047175 0.644907
vt 0.094351 0.644907
vt 0.444350 0.000000
vt 0.249577 0.251328
vt 0.188702 1.000000
vt 0.141526 0.644907
vt 0.188702 0.644907
vt 0.500000 0.573371
vt 0.694774 0.322044
vt 0.424579 0.746169
vt 0.377403 0.644907
vt 0.424579 0.644907
vt 0.471754 0.746169
vt 0.424579 0.644907
vt 0.471754 0.644907
vt 1.000000 0.071535
vt 0.749577 0.251328
vt 0.944350 0.000000
vt 0.141526 1.000000
vt 0.094351 0.644907
vt 0.141526 0.644907
vt 0.283053 0.999325
vt 0.330228 0.644907
vt 0.330228 0.999325
vt 0.000000 0.573371
vt 0.055650 0.644907
vt 0.194774 0.322044
vt 0.047175 0.644907
vt 0.000000 1.000000
vt 0.000000 0.644907
vt 0.500000 0.071671
vt 0.554803 0.000955
vt 0.188702 0.644907
vt 0.235877 0.999325
vt 0.188702 0.999325
vt 0.054803 0.000955
vt 1.000000 0.573236
vt 0.377403 0.846081
vt 0.424579 0.846081
vt 0.377403 0.999325
vt 0.500000 0.573236
vt 0.283052 0.999325
vt 0.047176 1.000000
vt 0.500000 0.071535
vt 0.141526 1.000000
vt 0.555650 0.644907
vt 0.377403 0.746169
vt 0.424579 0.746169
vt 0.094351 1.000000
vt 0.283052 0.644907
vt 0.047175 1.000000
vt 0.235877 0.644907
vt 0.000000 0.071671
vn 0.0000 0.0000 1.0000
vn -0.7071 0.7071 0.0000
vn 0.7071 -0.7071 0.0000
vn 0.7071 0.7071 0.0000
vn 0.0000 0.0000 -1.0000
vn -0.7071 -0.7071 0.0000
usemtl None
s off
f 27/1/1 44/2/1 72/3/1
f 36/4/2 39/5/2 37/6/2
f 41/7/3 26/8/3 32/9/3
f 23/10/4 42/11/4 70/12/4
f 69/13/5 31/14/5 29/15/5
f 19/16/4 35/17/4 33/18/4
f 53/19/2 67/20/2 34/21/2
f 56/22/5 69/13/5 68/23/5
f 62/24/3 71/25/3 21/26/3
f 72/3/1 54/27/1 18/28/1
f 59/29/6 51/30/6 49/31/6
f 12/32/4 14/33/4 16/34/4
f 64/35/1 47/36/1 52/37/1
f 72/3/1 47/36/1 27/1/1
f 30/38/3 13/39/3 60/40/3
f 22/41/6 1/42/6 24/43/6
f 50/44/5 29/15/5 15/45/5
f 68/23/5 29/15/5 57/46/5
f 9/47/2 58/48/2 11/49/2
f 47/36/1 7/50/1 38/51/1
f 20/52/6 8/53/6 40/54/6
f 57/46/5 6/55/5 68/23/5
f 27/1/1 25/56/1 44/2/1
f 36/4/2 45/57/2 39/5/2
f 41/7/3 43/58/3 26/8/3
f 23/10/4 2/59/4 42/11/4
f 69/13/5 4/60/5 31/14/5
f 19/16/4 46/61/4 35/17/4
f 53/19/2 55/62/2 67/20/2
f 56/22/5 61/63/5 69/13/5
f 62/24/3 65/64/3 71/25/3
f 72/3/1 66/65/1 54/27/1
f 59/29/6 63/66/6 51/30/6
f 12/32/4 10/67/4 14/33/4
f 64/35/1 27/1/1 47/36/1
f 72/3/1 18/28/1 47/36/1
f 30/38/3 28/68/3 13/39/3
f 22/41/6 3/69/6 1/42/6
f 50/44/5 57/46/5 29/15/5
f 68/23/5 69/13/5 29/15/5
f 9/47/2 48/70/2 58/48/2
f 47/36/1 18/28/1 7/50/1
f 20/52/6 17/71/6 8/53/6
f 57/46/5 5/72/5 6/55/5
